<?xml version="1.0" encoding="utf-8"?>
<!-- Generator: Adobe Illustrator 25.4.1, SVG Export Plug-In . SVG Version: 6.00 Build 0)  -->
<svg version="1.1" id="Layer_1" xmlns="http://www.w3.org/2000/svg" xmlns:xlink="http://www.w3.org/1999/xlink" x="0px" y="0px"
	 viewBox="0 0 16 16" style="enable-background:new 0 0 16 16;" xml:space="preserve">
<style type="text/css">
	.st0{fill:#43747C;}
</style>
<path class="st0" d="M8,4.3L8,4.3c0.6,0,3.3,0,4,0.2c0.5,0.2,0.9,0.5,1,1c0.1,0.2,0.1,0.6,0.1,0.9v0.1v0.2v0.1c0,0.6,0,1.2,0,1.3
	l0,0c0,0.1,0,0.7-0.1,1.3v0.1v0.1c0,0.4-0.1,0.7-0.2,1c-0.1,0.5-0.5,0.8-0.9,0.9c-0.8,0.2-3.6,0.2-4,0.2H8c-0.2,0-1,0-1.9,0H6H5.9
	H5.8H5.7c-0.7,0-1.4-0.1-1.7-0.2c-0.5-0.2-0.9-0.5-1-1c-0.1-0.3-0.1-0.6-0.2-1V9.4V9.3c0-0.4-0.1-0.9-0.1-1.3v0c0-0.1,0-0.6,0-1.2
	V6.7l0,0V6.6V6.4V6.3c0-0.3,0.1-0.7,0.1-0.9C3.1,5,3.5,4.7,3.9,4.5c0.3-0.1,1-0.1,1.7-0.2h0.1h0.1h0.1H6C6.6,4.3,7.2,4.3,8,4.3
	L8,4.3L8,4.3z M7,6.4v3.1L9.7,8L7,6.4z"/>
</svg>
